PathFileType	4	(X/Y/Z)	C:/Users/opensim2020/Desktop/walking_exp_matlab/subject06_walking18_straight_02.trc	
DataRate	CameraRate	NumFrames	NumMarkers	Units	OrigDataRate	OrigDataStartFrame	OrigNumFrames	
100.00	100.00	8	47	mm	100.00	2252	326	
Frame#	Time	LFHD			RFHD			LBHD			RBHD			C7			T10			CLAV			STRN			RBAK			LSHO			LUPA			LELB			LFRM			LWRA			LWRB			LFIN			RSHO			RUPA			RELB			RFRM			RWRA			RWRB			RFIN			LASI			RASI			LPSI			RPSI			LTHI			LKNE			LTIB			LANK			LHEE			LTOE			RTHI			RKNE			RTIB			RANK			RHEE			RTOE			*39			*40			*41			*42			*43			*44			*45			*46			
		X1	Y1	Z1	X2	Y2	Z2	X3	Y3	Z3	X4	Y4	Z4	X5	Y5	Z5	X6	Y6	Z6	X7	Y7	Z7	X8	Y8	Z8	X9	Y9	Z9	X10	Y10	Z10	X11	Y11	Z11	X12	Y12	Z12	X13	Y13	Z13	X14	Y14	Z14	X15	Y15	Z15	X16	Y16	Z16	X17	Y17	Z17	X18	Y18	Z18	X19	Y19	Z19	X20	Y20	Z20	X21	Y21	Z21	X22	Y22	Z22	X23	Y23	Z23	X24	Y24	Z24	X25	Y25	Z25	X26	Y26	Z26	X27	Y27	Z27	X28	Y28	Z28	X29	Y29	Z29	X30	Y30	Z30	X31	Y31	Z31	X32	Y32	Z32	X33	Y33	Z33	X34	Y34	Z34	X35	Y35	Z35	X36	Y36	Z36	X37	Y37	Z37	X38	Y38	Z38	X39	Y39	Z39	X40	Y40	Z40	X41	Y41	Z41	X42	Y42	Z42	X43	Y43	Z43	X44	Y44	Z44	X45	Y45	Z45	X46	Y46	Z46	X47	Y47	Z47	

1	0.000	-929.40735	1156.88184	1664.10364	-1061.75745	1162.38733	1656.65906	-925.55579	1290.07361	1608.70459	-1054.92590	1293.51990	1606.71924	-978.81085	1294.34058	1453.02795	-982.68542	1324.71252	1122.80420	-994.34894	1183.62146	1378.20935	-995.23804	1140.47803	1202.67236	-1049.10974	1374.28564	1280.47998	-827.42523	1214.15735	1408.41870	-754.21460	1179.25024	1209.02356	-741.27777	1159.27173	1097.97644	-731.96198	1086.80054	964.81036	-791.15198	1002.51703	877.82471	-744.40857	1048.83594	851.97266	-755.36218	982.10199	791.63879	-1147.31128	1250.70093	1408.72266	-1230.37427	1292.99683	1209.48096	-1245.59705	1282.43872	1088.67297	-1265.70862	1257.59375	971.61084	-1242.92590	1178.46533	840.86249	-1276.34058	1237.08411	835.93573	-1283.42651	1192.07874	764.52405	-905.09485	1133.02502	961.78760	-1124.70715	1163.74329	975.57904	-911.49188	1293.45776	989.88586	-1078.28186	1311.80908	993.54517	-856.04529	1214.92627	645.78546	-883.09869	1234.16956	483.21478	-901.69861	1302.56812	233.45750	-955.86908	1327.99500	65.49960	-999.73071	1370.76196	55.22048	-965.68365	1184.74451	33.46101	-1195.79883	1169.15552	645.97833	-1181.60107	1131.11255	524.08588	-1187.82446	1206.63660	271.66068	-1155.25500	1243.03088	86.53645	-1105.88477	1276.59729	59.96764	-1182.00659	1097.80334	40.80298	-983.58832	1259.86951	1703.24512																					 
2	0.010	-929.55237	1151.92444	1663.68213	-1061.90002	1157.61865	1656.16968	-925.64691	1285.18445	1608.57397	-1054.97192	1289.05457	1606.50159	-978.73602	1289.95203	1452.78381	-982.58728	1320.69287	1122.54443	-994.36798	1179.29749	1377.84912	-995.28101	1136.27002	1202.34424	-1048.88245	1370.17029	1280.32458	-827.47083	1209.61340	1408.19458	-754.27930	1174.39380	1208.89063	-741.32281	1154.13513	1097.88318	-732.47913	1080.49756	965.32440	-792.00507	995.15436	879.60278	-745.53064	1041.46143	852.96356	-756.71088	973.94238	793.28741	-1147.28003	1246.59717	1408.42126	-1230.25110	1289.49878	1209.26208	-1245.53271	1279.51343	1088.42395	-1265.89087	1255.98425	971.13220	-1243.48096	1178.44958	839.27686	-1276.86804	1237.12622	835.13708	-1284.23438	1193.08923	763.21393	-905.20197	1128.64197	961.52136	-1124.82776	1159.61133	975.70245	-911.44208	1289.13318	989.41510	-1078.23083	1307.62024	993.28918	-856.50452	1211.06982	645.50702	-883.44025	1231.27185	482.99869	-901.69208	1301.31665	233.57541	-955.91260	1327.50549	65.54433	-999.51990	1370.49146	55.38235	-965.74146	1184.42285	33.50116	-1196.32336	1163.97424	645.97681	-1182.00769	1124.56372	524.63080	-1188.74011	1192.05505	270.15619	-1156.67200	1222.21973	83.77709	-1107.51428	1255.43103	56.59661	-1181.76392	1075.30042	41.19190	-983.67389	1254.91382	1703.02368																					 
3	0.020	-929.77130	1146.98645	1663.14441	-1062.10779	1152.93213	1655.61609	-925.50928	1280.46216	1608.43127	-1054.99902	1284.48218	1606.28528	-978.71838	1285.58411	1452.46960	-982.52686	1316.49207	1122.19104	-994.43683	1175.01855	1377.40454	-995.34967	1132.07849	1201.91711	-1048.65308	1365.96851	1280.05530	-827.54083	1205.12952	1407.85168	-754.26587	1169.72034	1208.68921	-741.33820	1148.96924	1097.68030	-733.03436	1074.26160	965.67670	-792.86273	988.00970	881.20575	-746.78448	1034.23035	853.72729	-758.23480	966.25714	794.77820	-1147.27954	1242.45276	1408.01880	-1230.23743	1286.00720	1208.98914	-1245.49988	1276.64294	1088.10242	-1266.11572	1254.29761	970.58527	-1244.28931	1178.17834	837.81189	-1277.44043	1237.03882	834.39178	-1285.03345	1193.92688	761.92456	-905.30658	1124.37683	961.13715	-1124.96558	1155.43250	975.73071	-911.42322	1284.72107	988.89465	-1078.23877	1303.31531	992.96161	-856.94543	1207.42432	645.16992	-883.81024	1228.33313	482.69394	-901.64880	1300.09802	233.72430	-955.87488	1327.23877	65.74238	-999.38080	1370.38452	55.72133	-965.80359	1184.34607	33.45370	-1196.80029	1157.93787	646.69543	-1182.32434	1118.09888	524.99396	-1189.62122	1177.51624	268.79742	-1157.87292	1200.97363	81.20064	-1109.11230	1233.73560	53.18957	-1181.33643	1052.87146	41.33233	-983.76825	1250.00391	1702.73315																					 
4	0.030	-929.97516	1142.22546	1662.64832	-1062.37024	1148.26025	1655.00403	-925.58185	1275.71765	1608.16406	-1054.92188	1279.74158	1605.97559	-978.72913	1281.21594	1452.07715	-982.61212	1312.31128	1121.75671	-994.53522	1170.67700	1376.87915	-995.46832	1127.96606	1201.36597	-1048.49976	1361.81128	1279.70764	-827.62744	1200.74768	1407.47961	-754.31396	1165.17114	1208.40625	-741.52649	1144.01746	1097.35095	-733.62909	1068.20264	965.93372	-793.73737	981.03088	882.64648	-748.11786	1027.14807	854.41168	-759.73706	958.71362	796.05096	-1147.30371	1238.30713	1407.50793	-1230.24976	1282.54480	1208.63293	-1245.60474	1273.78601	1087.73181	-1266.44214	1252.58850	970.01807	-1245.11316	1177.78845	836.35681	-1278.13867	1236.90381	833.74219	-1285.85864	1194.52039	760.62103	-905.54932	1119.89563	960.63953	-1125.06360	1151.04089	975.42047	-911.51947	1280.28687	988.38953	-1078.35132	1298.96655	992.55182	-857.36591	1203.74438	644.81354	-884.15106	1225.65771	482.40302	-901.61987	1298.83264	233.81065	-955.82806	1326.95239	65.92960	-999.26886	1370.18384	55.91137	-965.85028	1184.26086	33.41316	-1197.21338	1152.65515	646.51373	-1182.65393	1111.75208	525.27618	-1190.53467	1162.97766	267.60266	-1159.50500	1180.21826	79.20726	-1110.74048	1212.43958	50.72832	-1181.02515	1030.75439	41.28870	-983.88428	1245.10022	1702.39087																					 
5	0.040	-930.32214	1137.34875	1662.07825	-1062.61450	1143.62146	1654.32507	-925.76746	1270.91113	1607.81177	-1054.97461	1275.17969	1605.58716	-978.80298	1276.81848	1451.59741	-982.76776	1307.96997	1121.24988	-994.69403	1166.35095	1376.36060	-995.65253	1123.62317	1200.92651	-1048.33289	1357.54834	1279.24768	-827.73199	1196.36584	1407.00073	-754.46155	1160.61401	1208.01660	-741.73926	1139.04773	1096.99316	-734.41309	1062.25391	966.12897	-794.40436	973.76093	884.10992	-749.49426	1020.27759	854.99780	-761.29578	951.37610	797.15405	-1147.43616	1234.19250	1406.98206	-1230.27466	1279.09155	1208.18701	-1245.72229	1270.93384	1087.28320	-1266.80774	1250.86353	969.42273	-1245.96533	1177.26282	834.94769	-1278.71387	1236.48132	832.87964	-1286.70117	1194.97388	759.40430	-905.76416	1115.51086	960.04547	-1125.29504	1146.69702	975.16919	-911.69812	1275.82837	987.82904	-1078.58508	1294.54443	992.09735	-857.85748	1200.12512	644.42334	-884.32813	1223.13647	482.15030	-901.65692	1297.54749	233.85081	-955.79181	1326.71802	66.10443	-999.24390	1370.22803	56.37025	-965.93951	1184.18811	33.38275	-1197.76013	1147.42041	646.39105	-1182.78381	1105.41077	525.41681	-1191.40820	1148.56018	266.57327	-1161.05164	1159.45557	77.73328	-1112.52283	1191.50122	49.20398	-1180.11865	1008.49475	40.84589	-984.07599	1240.29626	1701.97253																					 
6	0.050	-930.59399	1132.56628	1661.44678	-1062.96460	1139.04932	1653.67114	-925.88660	1266.26758	1607.40002	-1055.21460	1270.81592	1605.10876	-978.93176	1272.42969	1451.06726	-983.08722	1303.61475	1120.64551	-994.83350	1161.97058	1375.72583	-995.79266	1119.30237	1200.31616	-1048.24084	1353.24719	1278.68323	-827.88898	1192.05396	1406.44641	-754.62915	1156.12708	1207.51355	-742.04291	1134.10278	1096.52612	-735.12848	1056.43945	966.16333	-795.24817	967.11835	885.27057	-750.74878	1013.64490	855.39587	-762.91931	944.31384	798.04437	-1147.59192	1229.97070	1406.33508	-1230.41248	1275.68567	1207.70850	-1245.95483	1268.16589	1086.82251	-1267.20728	1249.07007	968.77350	-1246.85217	1176.64587	833.57452	-1279.44641	1236.10730	832.16711	-1287.60901	1195.23242	758.27380	-906.07684	1111.06128	959.41003	-1125.49854	1142.16052	974.68378	-912.01465	1271.38110	987.27344	-1078.92908	1290.02295	991.52979	-858.29510	1196.59387	643.94214	-884.57550	1220.58313	481.74713	-901.61981	1296.24854	233.78665	-955.79163	1326.57092	66.33968	-999.21466	1370.14661	56.61326	-965.98480	1184.07996	33.32320	-1198.27869	1141.99304	646.03418	-1183.00195	1099.30017	525.36792	-1192.30835	1134.30481	265.68610	-1162.35498	1138.87354	76.41663	-1114.20874	1170.80518	48.17023	-1179.41919	986.82056	40.57548	-984.31232	1235.52307	1701.46448																					 
7	0.060	-930.88684	1127.84680	1660.80969	-1063.30371	1134.49634	1652.93286	-926.05646	1261.56897	1606.91028	-1055.37012	1266.28845	1604.54041	-979.13995	1268.05334	1450.44702	-983.50037	1299.12585	1119.99719	-995.02917	1157.53601	1375.07202	-996.03552	1114.96484	1199.69556	-1048.21509	1348.87866	1278.02222	-828.02350	1187.72510	1405.86902	-754.94806	1151.61572	1206.92163	-742.36615	1129.12341	1095.93066	-735.93610	1050.64990	966.09351	-796.18054	960.46301	886.33423	-752.37952	1007.16046	855.86566	-764.44513	937.36096	798.76611	-1147.79639	1225.71716	1405.64380	-1230.53503	1272.34192	1207.18835	-1246.21863	1265.37610	1086.25378	-1267.67102	1247.25977	968.12897	-1247.77112	1175.87976	832.23145	-1280.07642	1235.36841	831.33215	-1288.49426	1195.28906	757.08020	-906.35999	1106.59363	958.66730	-1125.81580	1137.54468	974.05536	-912.38782	1266.89282	986.70380	-1079.38708	1285.39539	990.89661	-858.65326	1193.15308	643.35797	-884.82428	1217.95154	481.28851	-901.60931	1295.04553	233.68547	-955.91693	1326.17700	66.31248	-999.22900	1370.04065	56.81323	-966.03333	1184.03381	33.30694	-1199.93835	1134.95691	644.38623	-1183.22302	1093.20947	525.23102	-1193.15979	1120.22754	264.98297	-1163.75183	1118.48364	75.68716	-1115.75769	1150.48486	47.65241	-1178.79834	965.63116	40.18941	-984.55988	1230.79749	1700.91248																					 
8	0.070	-931.26697	1123.22485	1660.17200	-1063.69116	1129.97412	1652.23193	-926.18341	1257.25549	1606.48291	-1055.52283	1261.64978	1603.95972	-979.36182	1263.55945	1449.79236	-984.00983	1294.56091	1119.27148	-995.31189	1153.09021	1374.42456	-996.27606	1110.38293	1199.07654	-1048.28076	1344.43506	1277.27942	-828.24872	1183.38000	1405.15088	-755.25024	1147.10181	1206.27319	-742.84631	1124.29395	1095.31934	-736.79999	1044.99451	965.96173	-797.18030	953.91992	887.22552	-753.92224	1000.68665	856.03436	-766.26355	930.75098	799.42413	-1148.12048	1221.43848	1404.92493	-1230.70447	1268.98486	1206.60657	-1246.54248	1262.62378	1085.68896	-1268.19836	1245.42114	967.44519	-1248.82898	1174.99341	831.04633	-1280.89624	1234.69080	830.65021	-1289.43591	1195.18774	755.99597	-906.59503	1102.15222	957.91345	-1126.09314	1132.84814	973.38599	-912.85046	1262.45093	986.11444	-1079.94922	1280.67432	990.26129	-858.62921	1189.96619	642.90436	-884.99524	1215.59106	480.85400	-901.63177	1293.99072	233.63264	-956.02051	1326.00940	66.42480	-999.31702	1369.97717	57.02590	-966.06976	1183.99438	33.28516	-1200.50977	1129.63501	643.92694	-1183.39685	1087.25183	524.99646	-1194.00305	1106.54602	264.56940	-1165.03149	1098.80884	75.41768	-1117.12451	1130.67395	47.51340	-1178.00793	945.02008	39.96419	-984.87122	1226.16589	1700.34351																					 
